<svg width="15" height="17" viewBox="0 0 15 17" fill="none" xmlns="http://www.w3.org/2000/svg">
<path d="M7.5 17C8.01608 17.0007 8.51955 16.8373 8.94041 16.5326C9.36127 16.228 9.67861 15.7971 9.84833 15.3H5.15167C5.32139 15.7971 5.63873 16.228 6.05959 16.5326C6.48045 16.8373 6.98392 17.0007 7.5 17ZM13.3333 10.6981V6.8C13.3333 4.06555 11.5125 1.76205 9.04583 1.0693C8.80167 0.442 8.205 0 7.5 0C6.795 0 6.19833 0.442 5.95417 1.0693C3.4875 1.7629 1.66667 4.06555 1.66667 6.8V10.6981L0.244167 12.149C0.166632 12.2278 0.105142 12.3215 0.0632378 12.4246C0.0213334 12.5278 -0.000157874 12.6384 8.73061e-07 12.75V13.6C8.73061e-07 13.8254 0.0877982 14.0416 0.244078 14.201C0.400359 14.3604 0.61232 14.45 0.833334 14.45H14.1667C14.3877 14.45 14.5996 14.3604 14.7559 14.201C14.9122 14.0416 15 13.8254 15 13.6V12.75C15.0002 12.6384 14.9787 12.5278 14.9368 12.4246C14.8949 12.3215 14.8334 12.2278 14.7558 12.149L13.3333 10.6981Z" fill="white"/>
</svg>
