<svg width="12" height="12" viewBox="0 0 12 12" fill="none" xmlns="http://www.w3.org/2000/svg">
<path d="M6 9.5C5.99972 8.90949 6.14895 8.32853 6.43379 7.81126C6.71863 7.29399 7.1298 6.85726 7.62897 6.54179C8.12814 6.22631 8.69906 6.04236 9.28852 6.00707C9.87797 5.97179 10.4668 6.08632 11 6.34V3C11 2.45 10.55 2 10 2H2C1.45 2 1 2.45 1 3V9C1 9.55 1.45 10 2 10H6.04C6.015 9.835 6 9.67 6 9.5ZM2 3L6 5.5L10 3V4L6 6.5L2 4V3ZM8.67 11L6.9 9.23L7.605 8.525L8.665 9.585L10.785 7.465L11.5 8.17L8.67 11Z" fill="white"/>
</svg>
