<svg width="12" height="15" viewBox="0 0 12 15" fill="none" xmlns="http://www.w3.org/2000/svg">
<path d="M6 0C2.69 0 0 2.61504 0 5.83279C0 7.7965 1.17 9.4394 2.53 10.5865C2.96 10.9462 3.71 11.5198 4.38 12.3655C5.12 13.3085 5.79 14.3195 6 15C6.21 14.3195 6.88 13.3085 7.62 12.3655C8.29 11.5198 9.04 10.9462 9.47 10.5865C10.83 9.4394 12 7.7965 12 5.83279C12 2.61504 9.31 0 6 0ZM6 2.48866C6.45175 2.48866 6.89907 2.57516 7.31643 2.74322C7.73379 2.91127 8.11301 3.1576 8.43245 3.46813C8.75188 3.77866 9.00527 4.14732 9.17815 4.55305C9.35102 4.95878 9.44 5.39364 9.44 5.83279C9.44 6.27195 9.35102 6.70681 9.17815 7.11254C9.00527 7.51827 8.75188 7.88692 8.43245 8.19745C8.11301 8.50799 7.73379 8.75431 7.31643 8.92237C6.89907 9.09043 6.45175 9.17693 6 9.17693C5.08766 9.17693 4.21268 8.8246 3.56755 8.19745C2.92243 7.57031 2.56 6.71971 2.56 5.83279C2.56 4.94587 2.92243 4.09528 3.56755 3.46813C4.21268 2.84099 5.08766 2.48866 6 2.48866V2.48866Z" fill="#F74646"/>
</svg>
