<svg width="16" height="16" viewBox="0 0 16 16" fill="none" xmlns="http://www.w3.org/2000/svg">
<path d="M11.078 1.1525C10.8302 0.904734 10.528 0.718261 10.1954 0.607937C9.86288 0.497613 9.50913 0.466487 9.16241 0.51704C8.81568 0.567592 8.48555 0.698425 8.19832 0.899115C7.9111 1.0998 7.67471 1.3648 7.508 1.673L5.2175 5.9105L1.7225 7.304C1.60708 7.34989 1.50486 7.42373 1.42502 7.51889C1.34519 7.61405 1.29024 7.72754 1.26511 7.84919C1.23998 7.97083 1.24545 8.09681 1.28104 8.21582C1.31662 8.33482 1.38121 8.44312 1.469 8.531L3.9395 11L0.7205 14.219L0.5 15.5L1.781 15.281L5 12.0605L7.469 14.531C7.55677 14.6188 7.66497 14.6835 7.7839 14.7192C7.90282 14.7549 8.02875 14.7605 8.15038 14.7355C8.272 14.7105 8.38553 14.6557 8.48076 14.5761C8.57599 14.4964 8.64995 14.3943 8.696 14.279L10.0955 10.781L14.327 8.492C14.6352 8.32529 14.9002 8.0889 15.1009 7.80168C15.3016 7.51445 15.4324 7.18432 15.483 6.83759C15.5335 6.49086 15.5024 6.13712 15.3921 5.80455C15.2817 5.47198 15.0953 5.16977 14.8475 4.922L11.078 1.1525Z" fill="white"/>
</svg>
