<svg width="16" height="16" viewBox="0 0 16 16" fill="none" xmlns="http://www.w3.org/2000/svg">
<path d="M10.578 0.658998C10.3302 0.411234 10.028 0.224762 9.69545 0.114438C9.36288 0.00411346 9.00914 -0.0270124 8.66241 0.02354C8.31568 0.0740923 7.98555 0.204926 7.69832 0.405615C7.4111 0.606305 7.17471 0.871304 7.008 1.1795L4.7175 5.417L1.2225 6.8105C1.10708 6.85639 1.00486 6.93023 0.925023 7.02539C0.845189 7.12055 0.790238 7.23404 0.765107 7.35569C0.739975 7.47733 0.745449 7.60331 0.781037 7.72232C0.816625 7.84132 0.881213 7.94962 0.969 8.0375L3.4395 10.5065L0.2205 13.7255L0 15.0065L1.281 14.7875L4.5 11.567L6.969 14.0375C7.05677 14.1253 7.16497 14.19 7.2839 14.2257C7.40282 14.2614 7.52875 14.267 7.65038 14.242C7.772 14.217 7.88553 14.1622 7.98076 14.0826C8.07599 14.0029 8.14995 13.9008 8.196 13.7855L9.5955 10.2875L13.827 7.9985C14.1352 7.83179 14.4002 7.5954 14.6009 7.30818C14.8016 7.02095 14.9324 6.69082 14.983 6.34409C15.0335 5.99736 15.0024 5.64362 14.8921 5.31105C14.7817 4.97848 14.5953 4.67627 14.3475 4.4285L10.578 0.658998Z" fill="black"/>
</svg>
